<svg id="Layer_2" data-name="Layer 2" xmlns="http://www.w3.org/2000/svg" width="186.924" height="221.109" viewBox="0 0 186.924 221.109">
  <g id="type">
    <g id="Group_39" data-name="Group 39" transform="translate(0 114.547)" style="isolation: isolate">
      <path id="Path_1982" data-name="Path 1982" d="M731.659,1072.667l-29.139-7.162L640.17,987.29l29.138,7.162Z" transform="translate(-561.833 -981.022)" fill="#500"/>
      <path id="Path_1983" data-name="Path 1983" d="M645.377,945.824l-29.137-7.162,21.106-2.592,29.139,7.162Z" transform="translate(-540.831 -936.07)" fill="#700000"/>
      <path id="Path_1984" data-name="Path 1984" d="M648.306,968.088l-29.137-7.162-2.928-3.676,29.137,7.162Z" transform="translate(-540.831 -954.658)" fill="#500"/>
      <path id="Path_1985" data-name="Path 1985" d="M298.606,1017.623l14.923-1.833,2.928,3.672L248.119,1112.6l-10-12.544Z" transform="translate(-208.981 -1006.035)" fill="#980000"/>
      <path id="Path_1986" data-name="Path 1986" d="M875.458,994.6l55.278,69.348-11.106,15.135-62.351-78.215-2.928-3.676Z" transform="translate(-749.803 -987.438)" fill="#980000"/>
      <path id="Path_1987" data-name="Path 1987" d="M523.429,966.264,494.29,959.1l14.923-1.832,29.139,7.161Z" transform="translate(-433.804 -954.676)" fill="#700000"/>
      <path id="Path_1988" data-name="Path 1988" d="M39.138,1665.565,10,1658.4,0,1645.86l29.139,7.161Z" transform="translate(0 -1559.003)" fill="#500"/>
      <path id="Path_1989" data-name="Path 1989" d="M29.139,1061.832,0,1054.671,60.486,972.24,89.625,979.4Z" transform="translate(0 -967.814)" fill="#780000"/>
    </g>
    <g id="Group_40" data-name="Group 40" transform="translate(2.293)" style="isolation: isolate">
      <path id="Path_1990" data-name="Path 1990" d="M824.257,731.239l-29.137-7.161,59.107-7.258,29.139,7.161Z" transform="translate(-700.115 -629.103)" fill="#700000"/>
      <path id="Path_1991" data-name="Path 1991" d="M702.3,785.124l-29.139-7.162,14.924-1.832,29.137,7.161Z" transform="translate(-593.079 -681.155)" fill="#700000"/>
      <path id="Path_1992" data-name="Path 1992" d="M678.359,100.3,649.22,93.134,717.561,0,746.7,7.162Z" transform="translate(-572.068)" fill="#780000"/>
      <path id="Path_1993" data-name="Path 1993" d="M955.68,58.53l10,12.543-60.487,82.433-14.924,1.832-2.928-3.675Z" transform="translate(-781.049 -51.368)" fill="#980000"/>
      <path id="Path_1994" data-name="Path 1994" d="M681.287,771.926l-29.137-7.161-2.93-3.675,29.139,7.161Z" transform="translate(-572.068 -667.956)" fill="#500"/>
      <path id="Path_1995" data-name="Path 1995" d="M529.819,800.853l-29.139-7.161,21.106-2.592,29.139,7.162Z" transform="translate(-441.705 -694.293)" fill="#700000"/>
      <path id="Path_1996" data-name="Path 1996" d="M410.973,775.34l-.783,19.573-59.107,7.258-21.106,2.591-14.923,1.833L256.86,813.74l.782-19.573,58.193-7.145,21.106-2.591,14.923-1.833Z" transform="translate(-227.721 -680.462)" fill="#980000"/>
      <path id="Path_1997" data-name="Path 1997" d="M47.879,897.4,18.74,890.242l.783-19.572,29.137,7.161Z" transform="translate(-18.74 -764.126)" fill="#630000"/>
      <path id="Path_1998" data-name="Path 1998" d="M54.277,826.586,25.14,819.425l58.192-7.145,29.139,7.161Z" transform="translate(-24.357 -712.881)" fill="#700000"/>
      <path id="Path_1999" data-name="Path 1999" d="M78.079,144.188,48.94,137.026,60.046,121.89l29.139,7.162Z" transform="translate(-45.244 -106.974)" fill="#780000"/>
      <path id="Path_2000" data-name="Path 2000" d="M133.358,322.089l-29.137-7.162L48.94,245.58l29.139,7.162Z" transform="translate(-45.244 -215.528)" fill="#500"/>
      <path id="Path_2001" data-name="Path 2001" d="M360.515,258.638l2.928,3.674-21.1,2.592L287.06,195.556l11.106-15.136Z" transform="translate(-254.226 -158.342)" fill="#980000"/>
    </g>
  </g>
</svg>
